<svg id="Layer_1" enable-background="new 0 0 512 512" height="512" viewBox="0 0 512 512" width="512" xmlns="http://www.w3.org/2000/svg"><g><g><g><path d="m368 124c-4.418 0-8-3.582-8-8s3.582-8 8-8c13.233 0 24-10.767 24-24s-10.767-24-24-24c-4.418 0-8-3.582-8-8s3.582-8 8-8c22.056 0 40 17.944 40 40s-17.944 40-40 40z" fill="#f06423"/></g><g><path d="m216 124c-4.418 0-8-3.582-8-8s3.582-8 8-8c13.233 0 24-10.767 24-24s-10.767-24-24-24c-4.418 0-8-3.582-8-8s3.582-8 8-8c22.056 0 40 17.944 40 40s-17.944 40-40 40z" fill="#f06423"/></g><g><path d="m464 420h-304c-17.673 0-32-14.327-32-32v-240h368v240c0 17.673-14.327 32-32 32z" fill="#f06423"/></g><g><path d="m424 420h-264c-17.673 0-32-14.327-32-32v-240h328v240c0 17.673-14.327 32-32 32z" fill="#faa51e"/></g><g><path d="m464 84h-304c-17.673 0-32 14.327-32 32v32h368v-32c0-17.673-14.327-32-32-32z" fill="#46508c"/></g><g><path d="m424 84h-264c-17.673 0-32 14.327-32 32v32h328v-32c0-17.673-14.327-32-32-32z" fill="#5f78be"/></g><g><path d="m216 124c-22.056 0-40-17.944-40-40s17.944-40 40-40c4.418 0 8 3.582 8 8s-3.582 8-8 8c-13.233 0-24 10.767-24 24s10.767 24 24 24c4.418 0 8 3.582 8 8s-3.582 8-8 8z" fill="#faa51e"/></g><g><path d="m368 124c-22.056 0-40-17.944-40-40s17.944-40 40-40c4.418 0 8 3.582 8 8s-3.582 8-8 8c-13.233 0-24 10.767-24 24s10.767 24 24 24c4.418 0 8 3.582 8 8s-3.582 8-8 8z" fill="#faa51e"/></g><g><g><circle cx="256" cy="212" fill="#f06423" r="24"/></g><g><circle cx="328" cy="212" fill="#f06423" r="24"/></g><g><circle cx="400" cy="212" fill="#f06423" r="24"/></g><g><circle cx="184" cy="284" fill="#f06423" r="24"/></g><g><circle cx="256" cy="284" fill="#f06423" r="24"/></g><g><circle cx="328" cy="284" fill="#f06423" r="24"/></g><g><circle cx="400" cy="284" fill="#f06423" r="24"/></g><g><circle cx="184" cy="356" fill="#f06423" r="24"/></g><g><circle cx="256" cy="356" fill="#f06423" r="24"/></g><g><circle cx="328" cy="356" fill="#f06423" r="24"/></g><g><circle cx="184" cy="284" fill="#f06423" r="24"/></g><g><circle cx="256" cy="284" fill="#f06423" r="24"/></g></g></g><g><g><g><path d="m168 468h-32c-66.274 0-120-53.726-120-120 0-66.274 53.726-120 120-120h32c66.274 0 120 53.726 120 120 0 66.274-53.726 120-120 120z" fill="#46508c"/></g><g><circle cx="136" cy="348" fill="#5f78be" r="120"/></g><g><circle cx="136" cy="348" fill="#73cddc" r="88"/></g><g><path d="m144 325.371v-41.371c0-4.418-3.582-8-8-8s-8 3.582-8 8v41.371c-6.818 2.41-12.219 7.812-14.629 14.629h-41.371c-4.418 0-8 3.582-8 8s3.582 8 8 8h41.371c3.295 9.32 12.18 16 22.629 16 13.255 0 24-10.745 24-24 0-10.449-6.68-19.333-16-22.629zm-8 30.629c-4.418 0-8-3.582-8-8s3.582-8 8-8 8 3.582 8 8-3.582 8-8 8z" fill="#46508c"/><circle cx="136" cy="348" fill="#73cddc" r="8"/></g><g><path d="m136 420c-4.418 0-8-3.582-8-8v-8c0-4.418 3.582-8 8-8s8 3.582 8 8v8c0 4.418-3.582 8-8 8z" fill="#46508c"/></g><g><path d="m200 356h-8c-4.418 0-8-3.582-8-8s3.582-8 8-8h8c4.418 0 8 3.582 8 8s-3.582 8-8 8z" fill="#46508c"/></g></g></g></g></svg>