<?xml version="1.0" encoding="iso-8859-1"?>
<!-- Generator: Adobe Illustrator 19.0.0, SVG Export Plug-In . SVG Version: 6.00 Build 0)  -->
<svg version="1.1" id="Capa_1" xmlns="http://www.w3.org/2000/svg" xmlns:xlink="http://www.w3.org/1999/xlink" x="0px" y="0px"
	 viewBox="0 0 511.999 511.999" style="enable-background:new 0 0 511.999 511.999;" xml:space="preserve">
<path style="fill:#E59770;" d="M182.839,269.705h-77.412c-32.822,0-59.676-26.855-59.676-59.676v-4.507
	c0-32.822,26.854-59.676,59.676-59.676h77.412c32.822,0,59.676,26.854,59.676,59.676v4.507
	C242.515,242.851,215.661,269.705,182.839,269.705z"/>
<circle cx="114.781" cy="190.374" r="8.57"/>
<circle cx="87.567" cy="217.588" r="8.57"/>
<path style="fill:#E59770;" d="M406.571,269.705h-77.412c-32.822,0-59.676-26.855-59.676-59.676v-4.507
	c0-32.822,26.854-59.676,59.676-59.676h77.412c32.822,0,59.676,26.854,59.676,59.676v4.507
	C466.247,242.851,439.393,269.705,406.571,269.705z"/>
<g>
	<path style="fill:#DB7E56;" d="M466.247,205.518v4.514c0,32.82-26.858,59.668-59.678,59.668h-31.592
		c32.82,0,59.678-26.848,59.678-59.668v-4.514c0-32.82-26.858-59.668-59.678-59.668h31.592
		C439.39,145.849,466.247,172.697,466.247,205.518z"/>
	<path style="fill:#DB7E56;" d="M242.515,205.518v4.514c0,32.82-26.858,59.668-59.678,59.668h-31.592
		c32.82,0,59.678-26.848,59.678-59.668v-4.514c0-32.82-26.858-59.668-59.678-59.668h31.592
		C215.658,145.849,242.515,172.697,242.515,205.518z"/>
</g>
<circle cx="392.764" cy="190.374" r="8.57"/>
<path style="fill:#FCC927;" d="M423.014,366.152H88.985c-6.429,0-11.641-5.212-11.641-11.641v-27.034h357.311v27.034
	C434.655,360.94,429.443,366.152,423.014,366.152z"/>
<path style="fill:#EFAD0A;" d="M434.655,327.482v27.028c0,6.432-5.214,11.646-11.646,11.646h-23.302
	c6.432,0,11.646-5.214,11.646-11.646v-27.028H434.655z"/>
<path style="fill:#FCC927;" d="M290.874,271.297h-69.749H12.544c-3.685,0-6.126,3.821-4.579,7.165l16.606,35.882
	c3.706,8.008,11.726,13.133,20.55,13.133h176.004h69.749h176.004c8.824,0,16.844-5.126,20.55-13.133l16.606-35.882
	c1.547-3.344-0.894-7.165-4.579-7.165H290.874z"/>
<path style="fill:#EFAD0A;" d="M504.032,278.46l-16.6,35.887c-3.706,8-11.726,13.134-20.556,13.134h-23.972
	c8.83,0,16.85-5.134,20.556-13.134l16.6-35.887c1.548-3.346-0.889-7.162-4.574-7.162h23.972
	C503.143,271.299,505.58,275.114,504.032,278.46z"/>
<path d="M510.019,269.591c-2.316-3.623-6.264-5.785-10.564-5.785H446.77c16.362-12.262,26.969-31.804,26.969-53.778v-4.506
	c0-37.037-30.131-67.168-67.168-67.168h-34.71c-4.138,0-7.491,3.353-7.491,7.492c0,4.139,3.354,7.492,7.491,7.492h34.71
	c28.775,0,52.186,23.41,52.186,52.186v4.506c0,28.775-23.41,52.186-52.186,52.186h-77.412c-28.775,0-52.186-23.411-52.186-52.186
	v-4.506c0-27.269,21.303-50.135,48.499-52.056c4.127-0.292,7.237-3.874,6.945-8c-0.292-4.128-3.88-7.225-8-6.945
	c-35.005,2.473-62.426,31.903-62.426,67.001v4.506c0,21.974,10.607,41.516,26.969,53.778h-65.923
	c16.362-12.262,26.969-31.804,26.969-53.778v-4.506c0-37.037-30.131-67.168-67.168-67.168h-77.412
	c-17.546,0-34.173,6.785-46.816,19.105c-12.618,12.295-19.836,28.694-20.325,46.176c-0.116,4.136,3.143,7.581,7.279,7.698
	c4.139,0.12,7.581-3.145,7.697-7.279c0.782-27.965,24.182-50.718,52.165-50.718h77.412c28.775,0,52.186,23.41,52.186,52.186v4.506
	c0,28.775-23.41,52.186-52.186,52.186h-77.412c-15.563,0-30.227-6.945-40.231-19.054c-2.634-3.189-7.356-3.638-10.546-1.003
	c-3.189,2.635-3.639,7.358-1.003,10.547c3.476,4.206,7.403,7.91,11.661,11.102H12.544c-4.299,0-8.248,2.163-10.564,5.785
	c-2.315,3.623-2.619,8.115-0.814,12.017l16.606,35.882c4.914,10.618,15.649,17.479,27.349,17.479h24.732v19.543
	c0,10.549,8.583,19.132,19.133,19.132h334.029c10.55,0,19.133-8.583,19.133-19.132V334.97h24.732
	c11.699,0,22.435-6.861,27.349-17.479l16.606-35.882C512.638,277.706,512.333,273.213,510.019,269.591z M427.164,354.511
	c0,2.289-1.862,4.15-4.151,4.15H88.985c-2.289,0-4.151-1.861-4.151-4.15v-19.543h342.329v19.543H427.164z M480.629,311.197
	c-2.47,5.34-7.868,8.79-13.751,8.79h-32.224H77.344H45.121c-5.882,0-11.28-3.45-13.751-8.79l-15-32.41h479.259L480.629,311.197z"/>
<g>
</g>
<g>
</g>
<g>
</g>
<g>
</g>
<g>
</g>
<g>
</g>
<g>
</g>
<g>
</g>
<g>
</g>
<g>
</g>
<g>
</g>
<g>
</g>
<g>
</g>
<g>
</g>
<g>
</g>
</svg>
